<?xml version="1.0" standalone="no"?>
<!DOCTYPE svg PUBLIC "-//W3C//DTD SVG 20010904//EN"
 "http://www.w3.org/TR/2001/REC-SVG-20010904/DTD/svg10.dtd">
<svg version="1.0" xmlns="http://www.w3.org/2000/svg"
 width="1024.000000pt" height="1024.000000pt" viewBox="0 0 1024.000000 1024.000000"
 preserveAspectRatio="xMidYMid meet">

<g transform="translate(0.000000,1024.000000) scale(0.100000,-0.100000)"
fill="#000000" stroke="none">
<path d="M0 5120 l0 -5120 5118 0 5117 0 -1 5038 c-1 2770 -2 5074 -3 5120
l-1 82 -5115 0 -5115 0 0 -5120z m7418 2645 c-2 -1 -47 -5 -100 -8 l-98 -6 0
189 0 189 98 3 97 3 3 -184 c1 -101 1 -185 0 -186z m-4998 175 l0 -190 -185 0
-185 0 0 190 0 190 185 0 185 0 0 -190z m465 2 l0 -187 -103 -3 -102 -3 0 191
0 190 103 0 102 0 0 -188z m4125 3 l0 -185 -1955 -2 -1955 -3 0 188 0 187
1955 0 1955 0 0 -185z m1050 -5 l0 -190 -185 0 -185 0 0 190 0 190 185 0 185
0 0 -190z m-2850 -465 c0 -5 -80 -86 -177 -179 -98 -93 -387 -380 -643 -636
-256 -257 -504 -501 -552 -544 -87 -77 -102 -96 -74 -96 8 0 41 -22 73 -49 80
-67 554 -538 889 -885 472 -488 661 -674 700 -686 20 -7 38 -9 41 -6 14 14
-35 119 -93 201 -118 167 -159 218 -229 289 l-70 71 -2 513 -2 512 367 2 c202
2 603 1 892 -2 289 -3 649 -5 801 -5 l276 0 6 -180 c3 -99 3 -226 0 -283 l-6
-103 -31 7 c-17 4 -38 6 -46 5 -8 -2 -400 -2 -870 -2 l-855 2 1 -953 c0 -524
1 -964 2 -978 l2 -25 630 0 630 0 0 388 0 388 -92 -5 c-51 -3 -241 -11 -423
-16 -181 -6 -346 -12 -367 -13 -36 -2 -36 -2 -42 45 -4 26 -6 161 -6 300 l1
253 737 0 737 0 -3 -949 c-1 -522 -4 -951 -5 -953 -2 -2 -528 -4 -1168 -6
l-1164 -2 2 610 c1 634 -3 842 -18 866 -6 11 -56 15 -248 19 l-240 5 -28 36
c-66 87 -349 383 -709 745 l-387 389 29 20 c50 35 134 117 153 149 18 30 39
186 25 186 -7 0 -175 -159 -325 -307 l-97 -95 -7 -187 c-5 -102 -5 -355 -1
-562 l6 -376 -87 -2 c-49 -1 -98 -4 -111 -8 -13 -3 -96 -2 -185 2 l-162 7 2
1541 3 1542 267 3 268 3 0 -614 0 -615 50 41 c52 43 249 239 485 483 331 341
638 651 672 679 l37 30 371 0 c240 0 370 -4 370 -10z m1525 -560 l0 -560 -529
0 -528 0 3 557 4 558 300 3 c165 1 401 3 525 2 l225 0 0 -560z m-4317 443 l-3
-108 -115 0 c-63 0 -145 3 -182 7 l-68 6 0 104 0 104 186 -2 186 -2 -4 -109z
m1196 75 c3 -21 6 -130 6 -243 l0 -206 -75 -74 -75 -74 0 317 0 317 69 0 68 0
7 -37z m460 25 c-32 -53 -265 -298 -284 -298 -6 0 -10 57 -10 149 l0 150 43 4
c23 2 91 4 150 5 84 2 107 -1 101 -10z m3353 -89 c-3 -55 -8 -103 -11 -106 -3
-3 -98 -8 -211 -11 l-205 -5 0 112 0 111 216 0 217 0 -6 -101z m633 -11 l0
-108 -185 0 -185 0 0 111 0 111 185 -3 185 -4 0 -107z m-2651 -214 c1 -125 -1
-384 -5 -575 l-7 -349 -357 0 -358 0 -22 56 c-18 45 -30 59 -56 70 -45 19 -46
18 -69 -19 -54 -89 -55 -93 -55 -246 0 -202 34 -369 84 -410 23 -19 60 -6 75
26 8 16 16 102 21 203 5 96 12 205 16 243 6 64 8 67 33 67 14 0 42 -8 61 -19
33 -17 35 -21 42 -87 3 -38 9 -177 12 -309 4 -132 9 -295 11 -363 l5 -123 -32
38 c-116 138 -592 617 -650 655 -27 17 -48 32 -48 34 0 1 30 31 68 66 37 34
144 137 237 228 94 91 222 215 284 275 63 61 141 142 174 180 33 39 116 128
185 199 146 149 246 272 261 319 10 30 51 66 77 67 7 0 11 -76 13 -226z
m-2993 -2190 l-1 -2064 -130 0 c-71 0 -154 -3 -182 -6 l-53 -7 0 2071 0 2071
107 3 c60 2 142 2 184 0 l76 -3 -1 -2065z m5009 1994 l0 -83 -39 -6 c-22 -3
-117 -4 -213 -1 l-173 5 0 83 0 84 213 0 212 0 0 -82z m632 -1736 c1 -994 2
-1924 3 -2067 l3 -260 -187 -3 -186 -2 0 2072 0 2073 183 -3 184 -3 0 -1807z
m-637 1369 l0 -74 -122 6 c-66 4 -162 7 -212 7 l-91 0 0 69 0 70 212 -2 213
-2 0 -74z m-63 -274 l51 2 4 -44 3 -45 -212 0 -213 0 0 40 c0 58 12 62 175 53
77 -4 163 -7 192 -6z m-3819 -1179 c83 -91 96 -118 82 -166 -26 -86 -23 -416
6 -584 l7 -38 -84 0 -84 0 -1 430 c0 237 3 429 7 428 4 -2 34 -33 67 -70z
m3348 56 c219 -9 429 -13 465 -10 l67 6 -2 -69 -1 -68 -103 -7 c-57 -3 -338
-1 -625 5 -287 5 -540 8 -562 5 -22 -2 -96 -2 -165 2 l-124 7 -4 63 -4 62 34
1 c18 1 105 5 193 9 277 11 420 10 831 -6z m-2719 -724 c61 -63 111 -116 109
-117 -1 -1 -127 0 -280 4 -243 5 -275 8 -252 20 14 7 28 24 32 37 3 14 4 96 2
183 -3 153 -5 160 -36 232 -58 133 -36 122 146 -69 92 -96 217 -226 279 -290z
m627 -328 l33 4 6 -616 c3 -338 3 -617 1 -619 -2 -2 -35 -6 -74 -9 l-70 -5 0
594 c0 327 3 610 6 631 6 35 7 36 35 26 16 -6 44 -8 63 -6z m-1642 -124 l-3
-88 -77 -2 c-42 -2 -143 -3 -224 -3 l-148 0 0 77 c0 42 -2 83 -5 90 -5 12 34
14 227 13 l233 0 -3 -87z m1303 -517 l0 -586 -516 0 -517 0 -7 496 c-4 273 -4
538 0 588 l7 91 517 -1 516 -1 0 -587z m2158 337 c-3 -57 -6 -103 -7 -103 0 0
-175 1 -388 3 l-388 3 0 85 c0 59 4 86 13 89 6 2 163 8 347 13 184 5 356 9
382 10 l46 2 -5 -102z m-3463 -385 l0 -93 -138 0 c-77 0 -180 -3 -230 -6 l-92
-7 0 102 0 102 230 -2 230 -3 0 -93z m10 -428 l0 -115 -237 0 -238 0 0 115 0
115 238 0 237 0 0 -115z m-753 -449 c2 -2 6 -84 10 -183 l6 -180 -34 -7 c-19
-3 -103 -3 -186 0 l-153 7 0 186 0 186 177 -3 c98 -2 179 -5 180 -6z m473
-180 l0 -195 -100 1 -100 1 0 178 c0 97 -2 184 -5 191 -5 11 15 14 100 16
l105 3 0 -195z m4128 -1 l-3 -189 -1952 -1 -1953 0 0 177 c0 97 -2 182 -5 190
-4 11 327 13 1955 13 l1960 0 -2 -190z m412 3 l0 -193 -100 0 -100 0 0 193 0
192 100 0 100 0 0 -192z m640 -2 l0 -191 -185 -3 -185 -4 0 197 0 196 185 -2
185 -2 0 -191z"/>
<path d="M4220 7001 c0 -12 -224 -253 -397 -427 l-132 -133 47 -40 47 -39 267
270 268 270 -47 54 c-49 57 -53 60 -53 45z"/>
<path d="M2848 6543 c2 -60 8 -115 13 -124 8 -16 114 -37 125 -26 3 3 8 62 11
131 l6 126 -79 0 -79 0 3 -107z"/>
<path d="M2866 6098 c-3 -29 -8 -100 -11 -157 -5 -92 -3 -103 11 -97 8 3 41 6
72 6 l57 0 0 150 0 150 -62 0 -62 0 -5 -52z"/>
<path d="M3882 5596 c-13 -24 -36 -53 -53 -65 -38 -28 -37 -41 6 -70 20 -13
108 -100 197 -192 l162 -168 16 27 c19 31 76 82 91 82 5 0 -55 64 -134 143
-111 109 -232 242 -261 284 -1 1 -12 -17 -24 -41z"/>
<path d="M5950 7109 c0 -57 3 -188 7 -291 l6 -188 252 0 253 0 5 233 c3 127 5
256 4 284 l-2 53 -135 0 c-74 0 -192 3 -262 7 l-128 6 0 -104z m328 -186 l3
-73 -66 0 -65 0 0 69 c0 68 1 70 28 74 15 2 43 4 62 3 l35 -1 3 -72z"/>
<path d="M5160 6992 c-19 -54 -49 -119 -68 -147 l-34 -50 6 -90 c3 -49 3 -99
0 -111 -5 -19 -8 -20 -47 -8 -23 7 -69 20 -102 29 -33 10 -66 22 -72 28 -19
14 -18 -246 1 -262 9 -8 70 -9 210 -4 l196 6 0 31 c0 17 5 161 10 321 12 315
10 326 -40 344 -27 9 -27 9 -60 -87z"/>
<path d="M3680 3500 l0 -300 255 0 255 0 0 300 0 300 -255 0 -255 0 0 -300z
m328 12 c3 -70 2 -72 -23 -82 -15 -6 -44 -10 -66 -10 l-39 0 0 79 c0 54 4 81
13 85 6 3 35 4 62 3 l50 -2 3 -73z"/>
</g>
</svg>
